#!OML:ASF F:\VICON\USERDATA\Patient Classification 1\PLAYGROUND\JustinFriday\JustinFriday.ASF
:FULLY-SPECIFIED
:DEGREES
291
root 7.47154 18.5396 51.572 -144.513 66.3062 -143.324
lowerback 13.9193 4.58856 11.2625
upperback 1.65901 8.26215 3.56869
thorax -4.9774 3.97891 -3.89565
lowerneck 5.84603 4.73856 -3.13584
upperneck -28.1746 10.3049 7.5698
head -10.5344 4.98366 1.9839
rclavicle -7.23949e-014 -4.25399e-014
rhumerus -22.9157 -14.5406 -65.8542
rradius 29.3863
rwrist -11.7236
rhand -18.8784 -25.9551
rfingers 7.12502
rthumb 7.42257 -55.8049
lclavicle -7.23949e-014 -4.25399e-014
lhumerus -42.5357 5.50783 78.0609
lradius 38.776
lwrist 3.6066
lhand -14.1711 -9.17939
lfingers 7.12502
lthumb 11.9642 20.4587
rfemur 2.70847 -10.1862 31.825
rtibia 1.98785e-015
rfoot -0.872125 -6.79604
rtoes 3.08404
lfemur -30.1348 2.3566 -8.59597
ltibia 75.6986
lfoot -17.631 6.24277
ltoes -41.2944
292
root 7.54177 18.5279 51.6025 -145.693 65.6694 -144.577
lowerback 13.668 5.08907 11.1123
upperback 1.61325 8.85284 3.45327
thorax -4.80791 4.2773 -3.98638
lowerneck 6.08191 4.30705 -2.22563
upperneck -28.9078 9.85858 7.02395
head -10.7519 4.7569 1.67256
rclavicle 6.90404e-014 3.5334e-014
rhumerus -23.4864 -15.8392 -65.0137
rradius 29.8479
rwrist -11.7475
rhand -18.7937 -25.6078
rfingers 7.12502
rthumb 7.50427 -55.4547
lclavicle 6.90404e-014 3.5334e-014
lhumerus -41.8908 4.20555 78.5615
lradius 38.8283
lwrist 3.86337
lhand -14.6289 -8.74245
lfingers 7.12502
lthumb 11.5226 20.9208
rfemur 2.888 -10.5107 31.9206
rtibia 7.95139e-016
rfoot -1.11515 -7.37835
rtoes 3.64205
lfemur -30.5039 2.87032 -8.84828
ltibia 75.1189
lfoot -18.4683 6.44958
ltoes -44.7182
293
root 7.6122 18.5116 51.6258 -146.881 64.9222 -145.978
lowerback 13.4082 5.3623 10.9973
upperback 1.49281 9.15553 3.34899
thorax -4.751 4.4239 -4.04787
lowerneck 5.76037 4.09836 -1.74644
upperneck -29.0169 9.65653 6.81158
head -10.6835 4.67099 1.54568
rclavicle -4.85035e-014 -1.10822e-014
rhumerus -23.814 -16.4035 -64.3905
rradius 30.1645
rwrist -12.1064
rhand -19.1687 -25.6994
rfingers 7.12502
rthumb 7.14235 -55.5589
lclavicle -4.85035e-014 -1.10822e-014
lhumerus -41.6613 3.57547 78.8753
lradius 39.1067
lwrist 3.86189
lhand -15.0623 -8.39228
lfingers 7.12502
lthumb 11.1047 21.2939
rfemur 2.92958 -10.9427 31.9868
rtibia 7.95139e-016
rfoot -1.48913 -7.98861
rtoes 4.5383
lfemur -31.0333 3.23007 -9.16782
ltibia 74.5427
lfoot -18.4899 6.85255
ltoes -44.3706
294
root 7.68317 18.4948 51.6589 -148.113 64.3866 -147.416
lowerback 12.9159 5.3528 11.1227
upperback 1.78736 9.03347 2.98958
thorax -4.09885 4.40979 -4.38469
lowerneck 4.74854 4.10291 -1.97864
upperneck -29.1347 9.8898 7.1826
head -10.577 4.84431 1.71721
rclavicle -3.24112e-014 -3.50606e-014
rhumerus -23.0083 -16.6403 -64.6644
rradius 30.2729
rwrist -12.4602
rhand -19.7721 -25.8193
rfingers 7.12502
rthumb 6.55983 -55.6977
lclavicle -3.24112e-014 -3.50606e-014
lhumerus -41.0557 3.84187 78.6623
lradius 39.4947
lwrist 4.09433
lhand -15.3518 -8.21052
lfingers 7.12502
lthumb 10.8254 21.4905
rfemur 3.01885 -11.2168 31.9151
rtibia -1.43125e-014
rfoot -2.08282 -8.57226
rtoes 6.26805
lfemur -31.4731 3.70541 -9.6282
ltibia 73.9205
lfoot -18.2898 6.83822
ltoes -45.9333
295
root 7.75348 18.4736 51.6823 -148.792 63.8562 -148.109
lowerback 12.9775 4.93699 11.4332
upperback 1.83868 8.51808 2.79698
thorax -4.07799 4.15308 -4.69497
lowerneck 3.92465 4.48538 -2.81583
upperneck -29.0075 10.6164 7.91182
head -10.5022 5.2504 2.06267
rclavicle -1.22874e-014 1.03865e-014
rhumerus -22.0808 -15.6753 -65.3139
rradius 30.298
rwrist -12.5322
rhand -20.0791 -25.8039
rfingers 7.12502
rthumb 6.26343 -55.6913
lclavicle -1.22874e-014 1.03865e-014
lhumerus -41.3593 5.06024 78.053
lradius 40.0531
lwrist 4.31347
lhand -15.9285 -8.28914
lfingers 7.12502
lthumb 10.2691 21.4402
rfemur 3.23507 -11.3474 32.0606
rtibia 1.51076e-014
rfoot -2.57978 -9.01359
rtoes 7.32192
lfemur -31.6985 4.27329 -9.81967
ltibia 73.2752
lfoot -17.9889 7.43673
ltoes -46.3836
296
root 7.8305 18.4511 51.6944 -149.059 63.4286 -148.233
lowerback 13.0423 5.09205 11.579
upperback 1.77451 8.75404 2.74381
thorax -4.1159 4.26136 -4.86566
lowerneck 3.37302 4.50637 -2.57683
upperneck -28.7308 10.696 7.92778
head -10.2858 5.30261 2.03808
rclavicle 1.36404e-013 2.4202e-014
rhumerus -22.1128 -16.1637 -65.0026
rradius 30.3245
rwrist -11.9971
rhand -20.1625 -25.5867
rfingers 7.12502
rthumb 6.18296 -55.4765
lclavicle 1.36404e-013 2.4202e-014
lhumerus -41.4337 4.83774 78.0806
lradius 40.4098
lwrist 4.50307
lhand -16.48 -8.41419
lfingers 7.12502
lthumb 9.73705 21.3407
rfemur 3.59516 -11.2889 32.3413
rtibia -7.95139e-016
rfoot -2.88278 -9.44832
rtoes 6.88172
lfemur -31.6587 4.99111 -9.83396
ltibia 72.5677
lfoot -17.6141 8.32007
ltoes -45.2128
297
root 7.90749 18.4308 51.7046 -150.002 63.0666 -149.09
lowerback 13.2295 5.02361 11.4875
upperback 1.76888 8.66571 2.60552
thorax -4.22949 4.20895 -4.97516
lowerneck 2.103 4.68327 -2.86133
upperneck -27.9753 10.9904 8.36192
head -9.82463 5.50363 2.25705
rclavicle -2.03009e-014 -5.96354e-016
rhumerus -21.7186 -16.6576 -64.9317
rradius 30.1503
rwrist -10.8522
rhand -19.8605 -25.1499
rfingers 7.12502
rthumb 6.47453 -55.0309
lclavicle -2.03009e-014 -5.96354e-016
lhumerus -41.429 5.2391 77.8544
lradius 40.7259
lwrist 4.8437
lhand -16.4293 -8.70343
lfingers 7.12502
lthumb 9.78598 21.0492
rfemur 3.99341 -11.351 32.2467
rtibia -1.51076e-014
rfoot -3.12188 -9.93912
rtoes 6.8011
lfemur -31.5563 5.5146 -10.2385
ltibia 71.7837
lfoot -17.2524 9.11002
ltoes -42.953
